{
	"asset":{
		"version":"2.0",
		"generator":"Maxon Cinema 4D 2024.0.2 (#200000219)"
	},
	"scenes":[{
		"nodes":[0,
		1,
		2,
		3,
		4,
		5,
		6,
		7,
		8,
		9]
	}],
	"nodes":[{
		"name":"Cone",
		"mesh":0
	},
	{
		"name":"Pyramid",
		"mesh":1
	},
	{
		"name":"Capsule",
		"mesh":2
	},
	{
		"name":"Tube",
		"mesh":3
	},
	{
		"name":"floor",
		"mesh":4
	},
	{
		"name":"plane",
		"mesh":5
	},
	{
		"name":"wall",
		"mesh":6,
		"translation":[0.0,
		0.0,
		0.0],
		"rotation":[0.7071067690849304,
		0.0,
		0.0,
		-0.7071067690849304],
		"scale":[1.0,
		1.0,
		1.0]
	},
	{
		"name":"Sphere",
		"mesh":7
	},
	{
		"name":"Cube",
		"mesh":8
	},
	{
		"name":"Cylinder",
		"mesh":9
	}],
	"meshes":[{
		"name":"Cone",
		"primitives":[{
			"attributes":{
				"POSITION":1,
				"NORMAL":2,
				"TEXCOORD_0":3
			},
			"indices":0
		}]
	},
	{
		"name":"Pyramid",
		"primitives":[{
			"attributes":{
				"POSITION":5,
				"NORMAL":6,
				"TEXCOORD_0":7
			},
			"indices":4
		}]
	},
	{
		"name":"Capsule",
		"primitives":[{
			"attributes":{
				"POSITION":9,
				"NORMAL":10,
				"TEXCOORD_0":11
			},
			"indices":8
		}]
	},
	{
		"name":"Tube",
		"primitives":[{
			"attributes":{
				"POSITION":13,
				"NORMAL":14,
				"TEXCOORD_0":15
			},
			"indices":12
		}]
	},
	{
		"name":"floor",
		"primitives":[{
			"attributes":{
				"POSITION":17,
				"NORMAL":18,
				"TEXCOORD_0":19
			},
			"indices":16
		}]
	},
	{
		"name":"plane",
		"primitives":[{
			"attributes":{
				"POSITION":21,
				"NORMAL":22,
				"TEXCOORD_0":23
			},
			"indices":20
		}]
	},
	{
		"name":"wall",
		"primitives":[{
			"attributes":{
				"POSITION":25,
				"NORMAL":26,
				"TEXCOORD_0":27
			},
			"indices":24,
			"material":0
		}]
	},
	{
		"name":"Sphere",
		"primitives":[{
			"attributes":{
				"POSITION":29,
				"NORMAL":30,
				"TEXCOORD_0":31
			},
			"indices":28
		}]
	},
	{
		"name":"Cube",
		"primitives":[{
			"attributes":{
				"POSITION":33,
				"NORMAL":34,
				"TEXCOORD_0":35
			},
			"indices":32
		}]
	},
	{
		"name":"Cylinder",
		"primitives":[{
			"attributes":{
				"POSITION":37,
				"NORMAL":38,
				"TEXCOORD_0":39
			},
			"indices":36
		}]
	}],
	"accessors":[{
		"bufferView":0,
		"type":"SCALAR",
		"componentType":5123,
		"count":384,
		"byteOffset":0,
		"min":[0],
		"max":[383]
	},
	{
		"bufferView":1,
		"type":"VEC3",
		"componentType":5126,
		"count":384,
		"byteOffset":0,
		"min":[-0.5,
		0.0,
		-0.5],
		"max":[0.5,
		1.0,
		0.5]
	},
	{
		"bufferView":1,
		"type":"VEC3",
		"componentType":5126,
		"count":384,
		"byteOffset":12,
		"min":[-0.8944334387779236,
		-1.0,
		-0.8944334387779236],
		"max":[0.8944334387779236,
		1.0,
		0.8944334387779236]
	},
	{
		"bufferView":1,
		"type":"VEC2",
		"componentType":5126,
		"count":384,
		"byteOffset":24,
		"min":[0.0,
		0.0],
		"max":[1.0,
		1.0]
	},
	{
		"bufferView":2,
		"type":"SCALAR",
		"componentType":5123,
		"count":18,
		"byteOffset":0,
		"min":[0],
		"max":[17]
	},
	{
		"bufferView":3,
		"type":"VEC3",
		"componentType":5126,
		"count":18,
		"byteOffset":0,
		"min":[-0.5,
		0.0,
		-0.5],
		"max":[0.5,
		1.0,
		0.5]
	},
	{
		"bufferView":3,
		"type":"VEC3",
		"componentType":5126,
		"count":18,
		"byteOffset":12,
		"min":[-0.8944334387779236,
		-1.0,
		-0.8944334387779236],
		"max":[0.8944334387779236,
		0.44720110297203066,
		0.8944334387779236]
	},
	{
		"bufferView":3,
		"type":"VEC2",
		"componentType":5126,
		"count":18,
		"byteOffset":24,
		"min":[0.0,
		0.0],
		"max":[1.0,
		1.0]
	},
	{
		"bufferView":4,
		"type":"SCALAR",
		"componentType":5123,
		"count":6720,
		"byteOffset":0,
		"min":[0],
		"max":[6719]
	},
	{
		"bufferView":5,
		"type":"VEC3",
		"componentType":5126,
		"count":6720,
		"byteOffset":0,
		"min":[-0.25,
		0.0,
		-0.25],
		"max":[0.25,
		1.0,
		0.25]
	},
	{
		"bufferView":5,
		"type":"VEC3",
		"componentType":5126,
		"count":6720,
		"byteOffset":12,
		"min":[-1.0,
		-1.0,
		-1.0],
		"max":[1.0,
		1.0,
		1.0]
	},
	{
		"bufferView":5,
		"type":"VEC2",
		"componentType":5126,
		"count":6720,
		"byteOffset":24,
		"min":[0.0,
		0.0],
		"max":[1.0,
		1.0]
	},
	{
		"bufferView":6,
		"type":"SCALAR",
		"componentType":5123,
		"count":3840,
		"byteOffset":0,
		"min":[0],
		"max":[3839]
	},
	{
		"bufferView":7,
		"type":"VEC3",
		"componentType":5126,
		"count":3840,
		"byteOffset":0,
		"min":[-0.5,
		0.0,
		-0.5],
		"max":[0.5,
		1.0,
		0.5]
	},
	{
		"bufferView":7,
		"type":"VEC3",
		"componentType":5126,
		"count":3840,
		"byteOffset":12,
		"min":[-1.0,
		-1.0,
		-1.0],
		"max":[1.0,
		1.0,
		1.0]
	},
	{
		"bufferView":7,
		"type":"VEC2",
		"componentType":5126,
		"count":3840,
		"byteOffset":24,
		"min":[0.0,
		0.0],
		"max":[1.0,
		1.0]
	},
	{
		"bufferView":8,
		"type":"SCALAR",
		"componentType":5123,
		"count":600,
		"byteOffset":0,
		"min":[0],
		"max":[599]
	},
	{
		"bufferView":9,
		"type":"VEC3",
		"componentType":5126,
		"count":600,
		"byteOffset":0,
		"min":[-5.0,
		0.0,
		-5.0],
		"max":[5.0,
		0.0,
		5.0]
	},
	{
		"bufferView":9,
		"type":"VEC3",
		"componentType":5126,
		"count":600,
		"byteOffset":12,
		"min":[0.0,
		1.0,
		0.0],
		"max":[0.0,
		1.0,
		0.0]
	},
	{
		"bufferView":9,
		"type":"VEC2",
		"componentType":5126,
		"count":600,
		"byteOffset":24,
		"min":[0.0,
		0.0],
		"max":[1.0,
		1.0]
	},
	{
		"bufferView":10,
		"type":"SCALAR",
		"componentType":5123,
		"count":600,
		"byteOffset":0,
		"min":[0],
		"max":[599]
	},
	{
		"bufferView":11,
		"type":"VEC3",
		"componentType":5126,
		"count":600,
		"byteOffset":0,
		"min":[-0.5,
		-1.4901161193847657e-8,
		0.0],
		"max":[0.5,
		1.0,
		0.0]
	},
	{
		"bufferView":11,
		"type":"VEC3",
		"componentType":5126,
		"count":600,
		"byteOffset":12,
		"min":[0.0,
		0.0,
		-1.0],
		"max":[0.0,
		0.0,
		-1.0]
	},
	{
		"bufferView":11,
		"type":"VEC2",
		"componentType":5126,
		"count":600,
		"byteOffset":24,
		"min":[0.0,
		0.0],
		"max":[1.0,
		1.0]
	},
	{
		"bufferView":12,
		"type":"SCALAR",
		"componentType":5123,
		"count":36,
		"byteOffset":0,
		"min":[0],
		"max":[35]
	},
	{
		"bufferView":13,
		"type":"VEC3",
		"componentType":5126,
		"count":36,
		"byteOffset":0,
		"min":[-0.5,
		-0.02500000037252903,
		0.0],
		"max":[0.5,
		0.024999994784593583,
		1.0]
	},
	{
		"bufferView":13,
		"type":"VEC3",
		"componentType":5126,
		"count":36,
		"byteOffset":12,
		"min":[-1.0,
		-1.0,
		-1.0],
		"max":[1.0,
		1.0,
		1.0]
	},
	{
		"bufferView":13,
		"type":"VEC2",
		"componentType":5126,
		"count":36,
		"byteOffset":24,
		"min":[-1.021405055600202e-15,
		0.009934306144714356],
		"max":[0.663344144821167,
		1.0]
	},
	{
		"bufferView":14,
		"type":"SCALAR",
		"componentType":5123,
		"count":11904,
		"byteOffset":0,
		"min":[0],
		"max":[11903]
	},
	{
		"bufferView":15,
		"type":"VEC3",
		"componentType":5126,
		"count":11904,
		"byteOffset":0,
		"min":[-0.5,
		0.0,
		-0.5],
		"max":[0.5,
		1.0,
		0.5]
	},
	{
		"bufferView":15,
		"type":"VEC3",
		"componentType":5126,
		"count":11904,
		"byteOffset":12,
		"min":[-1.0,
		-1.0,
		-1.0],
		"max":[1.0,
		1.0,
		1.0]
	},
	{
		"bufferView":15,
		"type":"VEC2",
		"componentType":5126,
		"count":11904,
		"byteOffset":24,
		"min":[0.0,
		0.0],
		"max":[1.0,
		1.0]
	},
	{
		"bufferView":16,
		"type":"SCALAR",
		"componentType":5123,
		"count":36,
		"byteOffset":0,
		"min":[0],
		"max":[35]
	},
	{
		"bufferView":17,
		"type":"VEC3",
		"componentType":5126,
		"count":36,
		"byteOffset":0,
		"min":[-0.5,
		0.0,
		-0.5],
		"max":[0.5,
		1.0,
		0.5]
	},
	{
		"bufferView":17,
		"type":"VEC3",
		"componentType":5126,
		"count":36,
		"byteOffset":12,
		"min":[-1.0,
		-1.0,
		-1.0],
		"max":[1.0,
		1.0,
		1.0]
	},
	{
		"bufferView":17,
		"type":"VEC2",
		"componentType":5126,
		"count":36,
		"byteOffset":24,
		"min":[0.0,
		0.0],
		"max":[1.0,
		1.0]
	},
	{
		"bufferView":18,
		"type":"SCALAR",
		"componentType":5123,
		"count":1920,
		"byteOffset":0,
		"min":[0],
		"max":[1919]
	},
	{
		"bufferView":19,
		"type":"VEC3",
		"componentType":5126,
		"count":1920,
		"byteOffset":0,
		"min":[-0.5,
		0.0,
		-0.5],
		"max":[0.5,
		1.0,
		0.5]
	},
	{
		"bufferView":19,
		"type":"VEC3",
		"componentType":5126,
		"count":1920,
		"byteOffset":12,
		"min":[-1.0,
		-1.0,
		-1.0],
		"max":[1.0,
		1.0,
		1.0]
	},
	{
		"bufferView":19,
		"type":"VEC2",
		"componentType":5126,
		"count":1920,
		"byteOffset":24,
		"min":[0.0,
		0.0],
		"max":[1.0,
		1.0]
	}],
	"bufferViews":[{
		"buffer":0,
		"byteOffset":0,
		"byteLength":768,
		"target":34963
	},
	{
		"buffer":0,
		"byteOffset":768,
		"byteLength":12288,
		"target":34962,
		"byteStride":32
	},
	{
		"buffer":1,
		"byteOffset":0,
		"byteLength":36,
		"target":34963
	},
	{
		"buffer":1,
		"byteOffset":36,
		"byteLength":576,
		"target":34962,
		"byteStride":32
	},
	{
		"buffer":2,
		"byteOffset":0,
		"byteLength":13440,
		"target":34963
	},
	{
		"buffer":2,
		"byteOffset":13440,
		"byteLength":215040,
		"target":34962,
		"byteStride":32
	},
	{
		"buffer":3,
		"byteOffset":0,
		"byteLength":7680,
		"target":34963
	},
	{
		"buffer":3,
		"byteOffset":7680,
		"byteLength":122880,
		"target":34962,
		"byteStride":32
	},
	{
		"buffer":4,
		"byteOffset":0,
		"byteLength":1200,
		"target":34963
	},
	{
		"buffer":4,
		"byteOffset":1200,
		"byteLength":19200,
		"target":34962,
		"byteStride":32
	},
	{
		"buffer":5,
		"byteOffset":0,
		"byteLength":1200,
		"target":34963
	},
	{
		"buffer":5,
		"byteOffset":1200,
		"byteLength":19200,
		"target":34962,
		"byteStride":32
	},
	{
		"buffer":6,
		"byteOffset":0,
		"byteLength":72,
		"target":34963
	},
	{
		"buffer":6,
		"byteOffset":72,
		"byteLength":1152,
		"target":34962,
		"byteStride":32
	},
	{
		"buffer":7,
		"byteOffset":0,
		"byteLength":23808,
		"target":34963
	},
	{
		"buffer":7,
		"byteOffset":23808,
		"byteLength":380928,
		"target":34962,
		"byteStride":32
	},
	{
		"buffer":8,
		"byteOffset":0,
		"byteLength":72,
		"target":34963
	},
	{
		"buffer":8,
		"byteOffset":72,
		"byteLength":1152,
		"target":34962,
		"byteStride":32
	},
	{
		"buffer":9,
		"byteOffset":0,
		"byteLength":3840,
		"target":34963
	},
	{
		"buffer":9,
		"byteOffset":3840,
		"byteLength":61440,
		"target":34962,
		"byteStride":32
	}],
	"buffers":[{
		"uri":"data:application/octet-stream;base64,",
		"byteLength":13056
	},
	{
		"uri":"data:application/octet-stream;base64,",
		"byteLength":612
	},
	{
		"uri":"data:application/octet-stream;base64,",
		"byteLength":228480
	},
	{
		"uri":"data:application/octet-stream;base64,",
		"byteLength":130560
	},
	{
		"uri":"data:application/octet-stream;base64,",
		"byteLength":20400
	},
	{
		"uri":"data:application/octet-stream;base64,",
		"byteLength":20400
	},
	{
		"uri":"data:application/octet-stream;base64,",
		"byteLength":1224
	},
	{
		"uri":"data:application/octet-stream;base64,",
		"byteLength":404736
	},
	{
		"uri":"data:application/octet-stream;base64,",
		"byteLength":1224
	},
	{
		"uri":"data:application/octet-stream;base64,",
		"byteLength":65280
	}],
	"materials":[{
		"pbrMetallicRoughness":{
			"baseColorFactor":[1.0,
			1.0,
			1.0,
			1.0],
			"metallicFactor":0.0,
			"roughnessFactor":0.5
		},
		"emissiveFactor":[0.0,
		0.0,
		0.0],
		"alphaMode":"OPAQUE",
		"doubleSided":true,
		"name":"Mat"
	}]
}